<svg aria-roledescription="er" role="graphics-document document" viewBox="0 0 140 290" style="width: 100%;" xmlns="http://www.w3.org/2000/svg" width="100%" id="diagram-gen"><style>#diagram-gen{font-family:"trebuchet ms",verdana,arial,sans-serif;font-size:16px;fill:#333;}#diagram-gen .error-icon{fill:#552222;}#diagram-gen .error-text{fill:#552222;stroke:#552222;}#diagram-gen .edge-thickness-normal{stroke-width:2px;}#diagram-gen .edge-thickness-thick{stroke-width:3.5px;}#diagram-gen .edge-pattern-solid{stroke-dasharray:0;}#diagram-gen .edge-pattern-dashed{stroke-dasharray:3;}#diagram-gen .edge-pattern-dotted{stroke-dasharray:2;}#diagram-gen .marker{fill:#333333;stroke:#333333;}#diagram-gen .marker.cross{stroke:#333333;}#diagram-gen svg{font-family:"trebuchet ms",verdana,arial,sans-serif;font-size:16px;}#diagram-gen .entityBox{fill:#ECECFF;stroke:#9370DB;}#diagram-gen .attributeBoxOdd{fill:#ffffff;stroke:#9370DB;}#diagram-gen .attributeBoxEven{fill:#f2f2f2;stroke:#9370DB;}#diagram-gen .relationshipLabelBox{fill:hsl(80, 100%, 96.2745098039%);opacity:0.7;background-color:hsl(80, 100%, 96.2745098039%);}#diagram-gen .relationshipLabelBox rect{opacity:0.5;}#diagram-gen .relationshipLine{stroke:#333333;}#diagram-gen .entityTitleText{text-anchor:middle;font-size:18px;fill:#333;}#diagram-gen #MD_PARENT_START{fill:#f5f5f5!important;stroke:#333333!important;stroke-width:1;}#diagram-gen #MD_PARENT_END{fill:#f5f5f5!important;stroke:#333333!important;stroke-width:1;}#diagram-gen :root{--mermaid-font-family:"trebuchet ms",verdana,arial,sans-serif;}</style><g></g><defs><marker orient="auto" markerHeight="240" markerWidth="190" refY="7" refX="0" id="MD_PARENT_START"><path d="M 18,7 L9,13 L1,7 L9,1 Z"></path></marker></defs><defs><marker orient="auto" markerHeight="28" markerWidth="20" refY="7" refX="19" id="MD_PARENT_END"><path d="M 18,7 L9,13 L1,7 L9,1 Z"></path></marker></defs><defs><marker orient="auto" markerHeight="18" markerWidth="18" refY="9" refX="0" id="ONLY_ONE_START"><path d="M9,0 L9,18 M15,0 L15,18" fill="none" stroke="gray"></path></marker></defs><defs><marker orient="auto" markerHeight="18" markerWidth="18" refY="9" refX="18" id="ONLY_ONE_END"><path d="M3,0 L3,18 M9,0 L9,18" fill="none" stroke="gray"></path></marker></defs><defs><marker orient="auto" markerHeight="18" markerWidth="30" refY="9" refX="0" id="ZERO_OR_ONE_START"><circle r="6" cy="9" cx="21" fill="white" stroke="gray"></circle><path d="M9,0 L9,18" fill="none" stroke="gray"></path></marker></defs><defs><marker orient="auto" markerHeight="18" markerWidth="30" refY="9" refX="30" id="ZERO_OR_ONE_END"><circle r="6" cy="9" cx="9" fill="white" stroke="gray"></circle><path d="M21,0 L21,18" fill="none" stroke="gray"></path></marker></defs><defs><marker orient="auto" markerHeight="36" markerWidth="45" refY="18" refX="18" id="ONE_OR_MORE_START"><path d="M0,18 Q 18,0 36,18 Q 18,36 0,18 M42,9 L42,27" fill="none" stroke="gray"></path></marker></defs><defs><marker orient="auto" markerHeight="36" markerWidth="45" refY="18" refX="27" id="ONE_OR_MORE_END"><path d="M3,9 L3,27 M9,18 Q27,0 45,18 Q27,36 9,18" fill="none" stroke="gray"></path></marker></defs><defs><marker orient="auto" markerHeight="36" markerWidth="57" refY="18" refX="18" id="ZERO_OR_MORE_START"><circle r="6" cy="18" cx="48" fill="white" stroke="gray"></circle><path d="M0,18 Q18,0 36,18 Q18,36 0,18" fill="none" stroke="gray"></path></marker></defs><defs><marker orient="auto" markerHeight="36" markerWidth="57" refY="18" refX="39" id="ZERO_OR_MORE_END"><circle r="6" cy="18" cx="9" fill="white" stroke="gray"></circle><path d="M21,18 Q39,0 57,18 Q39,36 21,18" fill="none" stroke="gray"></path></marker></defs><path style="stroke: gray; fill: none;" marker-start="url(#ONLY_ONE_START)" marker-end="url(#ZERO_OR_MORE_END)" d="M70,95L70,103.333C70,111.667,70,128.333,70,145C70,161.667,70,178.333,70,186.667L70,195" class="er relationshipLine"></path><g transform="translate(20,20 )" id="entity-users-33ae1e26-be31-5c1d-bf65-e859e9d0308e"><rect height="75" width="100" y="0" x="0" class="er entityBox"></rect><text style="dominant-baseline: middle; text-anchor: middle; font-size: 12px;" transform="translate(50,37.5)" y="0" x="0" id="text-entity-users-33ae1e26-be31-5c1d-bf65-e859e9d0308e" class="er entityLabel">users</text></g><g transform="translate(20,195 )" id="entity-trips-19ff57ce-4c80-56ac-b63b-1960dd35a33d"><rect height="75" width="100" y="0" x="0" class="er entityBox"></rect><text style="dominant-baseline: middle; text-anchor: middle; font-size: 12px;" transform="translate(50,37.5)" y="0" x="0" id="text-entity-trips-19ff57ce-4c80-56ac-b63b-1960dd35a33d" class="er entityLabel">trips</text></g><rect height="0" width="0" y="145" x="70" class="er relationshipLabelBox"></rect><text style="text-anchor: middle; dominant-baseline: middle; font-size: 12px;" y="145" x="70" id="rel1" class="er relationshipLabel"></text></svg>