<svg aria-roledescription="er" role="graphics-document document" viewBox="0 0 290.82391357421875 602" style="width: 100%;" xmlns="http://www.w3.org/2000/svg" width="100%" id="diagram-gen"><style>#diagram-gen{font-family:"trebuchet ms",verdana,arial,sans-serif;font-size:16px;fill:#333;}#diagram-gen .error-icon{fill:#552222;}#diagram-gen .error-text{fill:#552222;stroke:#552222;}#diagram-gen .edge-thickness-normal{stroke-width:2px;}#diagram-gen .edge-thickness-thick{stroke-width:3.5px;}#diagram-gen .edge-pattern-solid{stroke-dasharray:0;}#diagram-gen .edge-pattern-dashed{stroke-dasharray:3;}#diagram-gen .edge-pattern-dotted{stroke-dasharray:2;}#diagram-gen .marker{fill:#333333;stroke:#333333;}#diagram-gen .marker.cross{stroke:#333333;}#diagram-gen svg{font-family:"trebuchet ms",verdana,arial,sans-serif;font-size:16px;}#diagram-gen .entityBox{fill:#ECECFF;stroke:#9370DB;}#diagram-gen .attributeBoxOdd{fill:#ffffff;stroke:#9370DB;}#diagram-gen .attributeBoxEven{fill:#f2f2f2;stroke:#9370DB;}#diagram-gen .relationshipLabelBox{fill:hsl(80, 100%, 96.2745098039%);opacity:0.7;background-color:hsl(80, 100%, 96.2745098039%);}#diagram-gen .relationshipLabelBox rect{opacity:0.5;}#diagram-gen .relationshipLine{stroke:#333333;}#diagram-gen .entityTitleText{text-anchor:middle;font-size:18px;fill:#333;}#diagram-gen #MD_PARENT_START{fill:#f5f5f5!important;stroke:#333333!important;stroke-width:1;}#diagram-gen #MD_PARENT_END{fill:#f5f5f5!important;stroke:#333333!important;stroke-width:1;}#diagram-gen :root{--mermaid-font-family:"trebuchet ms",verdana,arial,sans-serif;}</style><g></g><defs><marker orient="auto" markerHeight="240" markerWidth="190" refY="7" refX="0" id="MD_PARENT_START"><path d="M 18,7 L9,13 L1,7 L9,1 Z"></path></marker></defs><defs><marker orient="auto" markerHeight="28" markerWidth="20" refY="7" refX="19" id="MD_PARENT_END"><path d="M 18,7 L9,13 L1,7 L9,1 Z"></path></marker></defs><defs><marker orient="auto" markerHeight="18" markerWidth="18" refY="9" refX="0" id="ONLY_ONE_START"><path d="M9,0 L9,18 M15,0 L15,18" fill="none" stroke="gray"></path></marker></defs><defs><marker orient="auto" markerHeight="18" markerWidth="18" refY="9" refX="18" id="ONLY_ONE_END"><path d="M3,0 L3,18 M9,0 L9,18" fill="none" stroke="gray"></path></marker></defs><defs><marker orient="auto" markerHeight="18" markerWidth="30" refY="9" refX="0" id="ZERO_OR_ONE_START"><circle r="6" cy="9" cx="21" fill="white" stroke="gray"></circle><path d="M9,0 L9,18" fill="none" stroke="gray"></path></marker></defs><defs><marker orient="auto" markerHeight="18" markerWidth="30" refY="9" refX="30" id="ZERO_OR_ONE_END"><circle r="6" cy="9" cx="9" fill="white" stroke="gray"></circle><path d="M21,0 L21,18" fill="none" stroke="gray"></path></marker></defs><defs><marker orient="auto" markerHeight="36" markerWidth="45" refY="18" refX="18" id="ONE_OR_MORE_START"><path d="M0,18 Q 18,0 36,18 Q 18,36 0,18 M42,9 L42,27" fill="none" stroke="gray"></path></marker></defs><defs><marker orient="auto" markerHeight="36" markerWidth="45" refY="18" refX="27" id="ONE_OR_MORE_END"><path d="M3,9 L3,27 M9,18 Q27,0 45,18 Q27,36 9,18" fill="none" stroke="gray"></path></marker></defs><defs><marker orient="auto" markerHeight="36" markerWidth="57" refY="18" refX="18" id="ZERO_OR_MORE_START"><circle r="6" cy="18" cx="48" fill="white" stroke="gray"></circle><path d="M0,18 Q18,0 36,18 Q18,36 0,18" fill="none" stroke="gray"></path></marker></defs><defs><marker orient="auto" markerHeight="36" markerWidth="57" refY="18" refX="39" id="ZERO_OR_MORE_END"><circle r="6" cy="18" cx="9" fill="white" stroke="gray"></circle><path d="M21,18 Q39,0 57,18 Q39,36 21,18" fill="none" stroke="gray"></path></marker></defs><path style="stroke: gray; fill: none;" marker-start="url(#ONLY_ONE_START)" marker-end="url(#ZERO_OR_MORE_END)" d="M145.412,191L145.412,199.333C145.412,207.667,145.412,224.333,145.412,241C145.412,257.667,145.412,274.333,145.412,282.667L145.412,291" class="er relationshipLine"></path><g transform="translate(47.76568603515625,20 )" id="entity-users-33ae1e26-be31-5c1d-bf65-e859e9d0308e"><rect height="171" width="195.2925567626953" y="0" x="0" class="er entityBox"></rect><text style="dominant-baseline: middle; text-anchor: middle; font-size: 12px;" transform="translate(97.64627838134766,13.5)" y="0" x="0" id="text-entity-users-33ae1e26-be31-5c1d-bf65-e859e9d0308e" class="er entityLabel">users</text><rect height="24" width="36.55815124511719" y="27" x="0" class="er attributeBoxOdd"></rect><text style="dominant-baseline: middle; font-size: 10.2px;" transform="translate(5,39)" y="0" x="0" id="text-entity-users-33ae1e26-be31-5c1d-bf65-e859e9d0308e-attr-1-type" class="er entityLabel">int</text><rect height="24" width="57.921875" y="27" x="36.55815124511719" class="er attributeBoxOdd"></rect><text style="dominant-baseline: middle; font-size: 10.2px;" transform="translate(41.55815124511719,39)" y="0" x="0" id="text-entity-users-33ae1e26-be31-5c1d-bf65-e859e9d0308e-attr-1-name" class="er entityLabel">id</text><rect height="24" width="21.817001342773438" y="27" x="94.48002624511719" class="er attributeBoxOdd"></rect><text style="dominant-baseline: middle; font-size: 10.2px;" transform="translate(99.48002624511719,39)" y="0" x="0" id="text-entity-users-33ae1e26-be31-5c1d-bf65-e859e9d0308e-attr-1-key" class="er entityLabel">PK</text><rect height="24" width="78.99552917480469" y="27" x="116.29702758789062" class="er attributeBoxOdd"></rect><text style="dominant-baseline: middle; font-size: 10.2px;" transform="translate(121.29702758789062,39)" y="0" x="0" id="text-entity-users-33ae1e26-be31-5c1d-bf65-e859e9d0308e-attr-1-comment" class="er entityLabel">Primary Key</text><rect height="24" width="36.55815124511719" y="51" x="0" class="er attributeBoxEven"></rect><text style="dominant-baseline: middle; font-size: 10.2px;" transform="translate(5,63)" y="0" x="0" id="text-entity-users-33ae1e26-be31-5c1d-bf65-e859e9d0308e-attr-2-type" class="er entityLabel">string</text><rect height="24" width="57.921875" y="51" x="36.55815124511719" class="er attributeBoxEven"></rect><text style="dominant-baseline: middle; font-size: 10.2px;" transform="translate(41.55815124511719,63)" y="0" x="0" id="text-entity-users-33ae1e26-be31-5c1d-bf65-e859e9d0308e-attr-2-name" class="er entityLabel">first_name</text><rect height="24" width="21.817001342773438" y="51" x="94.48002624511719" class="er attributeBoxEven"></rect><text style="dominant-baseline: middle; font-size: 10.2px;" transform="translate(99.48002624511719,63)" y="0" x="0" id="text-entity-users-33ae1e26-be31-5c1d-bf65-e859e9d0308e-attr-2-key" class="er entityLabel"></text><rect height="24" width="78.99552917480469" y="51" x="116.29702758789062" class="er attributeBoxEven"></rect><text style="dominant-baseline: middle; font-size: 10.2px;" transform="translate(121.29702758789062,63)" y="0" x="0" id="text-entity-users-33ae1e26-be31-5c1d-bf65-e859e9d0308e-attr-2-comment" class="er entityLabel">First Name</text><rect height="24" width="36.55815124511719" y="75" x="0" class="er attributeBoxOdd"></rect><text style="dominant-baseline: middle; font-size: 10.2px;" transform="translate(5,87)" y="0" x="0" id="text-entity-users-33ae1e26-be31-5c1d-bf65-e859e9d0308e-attr-3-type" class="er entityLabel">string</text><rect height="24" width="57.921875" y="75" x="36.55815124511719" class="er attributeBoxOdd"></rect><text style="dominant-baseline: middle; font-size: 10.2px;" transform="translate(41.55815124511719,87)" y="0" x="0" id="text-entity-users-33ae1e26-be31-5c1d-bf65-e859e9d0308e-attr-3-name" class="er entityLabel">last_name</text><rect height="24" width="21.817001342773438" y="75" x="94.48002624511719" class="er attributeBoxOdd"></rect><text style="dominant-baseline: middle; font-size: 10.2px;" transform="translate(99.48002624511719,87)" y="0" x="0" id="text-entity-users-33ae1e26-be31-5c1d-bf65-e859e9d0308e-attr-3-key" class="er entityLabel"></text><rect height="24" width="78.99552917480469" y="75" x="116.29702758789062" class="er attributeBoxOdd"></rect><text style="dominant-baseline: middle; font-size: 10.2px;" transform="translate(121.29702758789062,87)" y="0" x="0" id="text-entity-users-33ae1e26-be31-5c1d-bf65-e859e9d0308e-attr-3-comment" class="er entityLabel">Last Name</text><rect height="24" width="36.55815124511719" y="99" x="0" class="er attributeBoxEven"></rect><text style="dominant-baseline: middle; font-size: 10.2px;" transform="translate(5,111)" y="0" x="0" id="text-entity-users-33ae1e26-be31-5c1d-bf65-e859e9d0308e-attr-4-type" class="er entityLabel">string</text><rect height="24" width="57.921875" y="99" x="36.55815124511719" class="er attributeBoxEven"></rect><text style="dominant-baseline: middle; font-size: 10.2px;" transform="translate(41.55815124511719,111)" y="0" x="0" id="text-entity-users-33ae1e26-be31-5c1d-bf65-e859e9d0308e-attr-4-name" class="er entityLabel">phone</text><rect height="24" width="21.817001342773438" y="99" x="94.48002624511719" class="er attributeBoxEven"></rect><text style="dominant-baseline: middle; font-size: 10.2px;" transform="translate(99.48002624511719,111)" y="0" x="0" id="text-entity-users-33ae1e26-be31-5c1d-bf65-e859e9d0308e-attr-4-key" class="er entityLabel"></text><rect height="24" width="78.99552917480469" y="99" x="116.29702758789062" class="er attributeBoxEven"></rect><text style="dominant-baseline: middle; font-size: 10.2px;" transform="translate(121.29702758789062,111)" y="0" x="0" id="text-entity-users-33ae1e26-be31-5c1d-bf65-e859e9d0308e-attr-4-comment" class="er entityLabel">Phone Number</text><rect height="24" width="36.55815124511719" y="123" x="0" class="er attributeBoxOdd"></rect><text style="dominant-baseline: middle; font-size: 10.2px;" transform="translate(5,135)" y="0" x="0" id="text-entity-users-33ae1e26-be31-5c1d-bf65-e859e9d0308e-attr-5-type" class="er entityLabel">string</text><rect height="24" width="57.921875" y="123" x="36.55815124511719" class="er attributeBoxOdd"></rect><text style="dominant-baseline: middle; font-size: 10.2px;" transform="translate(41.55815124511719,135)" y="0" x="0" id="text-entity-users-33ae1e26-be31-5c1d-bf65-e859e9d0308e-attr-5-name" class="er entityLabel">sex</text><rect height="24" width="21.817001342773438" y="123" x="94.48002624511719" class="er attributeBoxOdd"></rect><text style="dominant-baseline: middle; font-size: 10.2px;" transform="translate(99.48002624511719,135)" y="0" x="0" id="text-entity-users-33ae1e26-be31-5c1d-bf65-e859e9d0308e-attr-5-key" class="er entityLabel"></text><rect height="24" width="78.99552917480469" y="123" x="116.29702758789062" class="er attributeBoxOdd"></rect><text style="dominant-baseline: middle; font-size: 10.2px;" transform="translate(121.29702758789062,135)" y="0" x="0" id="text-entity-users-33ae1e26-be31-5c1d-bf65-e859e9d0308e-attr-5-comment" class="er entityLabel">Gender (F/M)</text><rect height="24" width="36.55815124511719" y="147" x="0" class="er attributeBoxEven"></rect><text style="dominant-baseline: middle; font-size: 10.2px;" transform="translate(5,159)" y="0" x="0" id="text-entity-users-33ae1e26-be31-5c1d-bf65-e859e9d0308e-attr-6-type" class="er entityLabel">date</text><rect height="24" width="57.921875" y="147" x="36.55815124511719" class="er attributeBoxEven"></rect><text style="dominant-baseline: middle; font-size: 10.2px;" transform="translate(41.55815124511719,159)" y="0" x="0" id="text-entity-users-33ae1e26-be31-5c1d-bf65-e859e9d0308e-attr-6-name" class="er entityLabel">birth_date</text><rect height="24" width="21.817001342773438" y="147" x="94.48002624511719" class="er attributeBoxEven"></rect><text style="dominant-baseline: middle; font-size: 10.2px;" transform="translate(99.48002624511719,159)" y="0" x="0" id="text-entity-users-33ae1e26-be31-5c1d-bf65-e859e9d0308e-attr-6-key" class="er entityLabel"></text><rect height="24" width="78.99552917480469" y="147" x="116.29702758789062" class="er attributeBoxEven"></rect><text style="dominant-baseline: middle; font-size: 10.2px;" transform="translate(121.29702758789062,159)" y="0" x="0" id="text-entity-users-33ae1e26-be31-5c1d-bf65-e859e9d0308e-attr-6-comment" class="er entityLabel">Birth Date</text></g><g transform="translate(20,291 )" id="entity-trips-19ff57ce-4c80-56ac-b63b-1960dd35a33d"><rect height="291" width="250.8239288330078" y="0" x="0" class="er entityBox"></rect><text style="dominant-baseline: middle; text-anchor: middle; font-size: 12px;" transform="translate(125.4119644165039,13.5)" y="0" x="0" id="text-entity-trips-19ff57ce-4c80-56ac-b63b-1960dd35a33d" class="er entityLabel">trips</text><rect height="24" width="50.671875" y="27" x="0" class="er attributeBoxOdd"></rect><text style="dominant-baseline: middle; font-size: 10.2px;" transform="translate(5,39)" y="0" x="0" id="text-entity-trips-19ff57ce-4c80-56ac-b63b-1960dd35a33d-attr-1-type" class="er entityLabel">int</text><rect height="24" width="74.24130249023438" y="27" x="50.671875" class="er attributeBoxOdd"></rect><text style="dominant-baseline: middle; font-size: 10.2px;" transform="translate(55.671875,39)" y="0" x="0" id="text-entity-trips-19ff57ce-4c80-56ac-b63b-1960dd35a33d-attr-1-name" class="er entityLabel">id</text><rect height="24" width="21.817001342773438" y="27" x="124.91317749023438" class="er attributeBoxOdd"></rect><text style="dominant-baseline: middle; font-size: 10.2px;" transform="translate(129.91317749023438,39)" y="0" x="0" id="text-entity-trips-19ff57ce-4c80-56ac-b63b-1960dd35a33d-attr-1-key" class="er entityLabel">PK</text><rect height="24" width="104.09375" y="27" x="146.7301788330078" class="er attributeBoxOdd"></rect><text style="dominant-baseline: middle; font-size: 10.2px;" transform="translate(151.7301788330078,39)" y="0" x="0" id="text-entity-trips-19ff57ce-4c80-56ac-b63b-1960dd35a33d-attr-1-comment" class="er entityLabel">Primary Key</text><rect height="24" width="50.671875" y="51" x="0" class="er attributeBoxEven"></rect><text style="dominant-baseline: middle; font-size: 10.2px;" transform="translate(5,63)" y="0" x="0" id="text-entity-trips-19ff57ce-4c80-56ac-b63b-1960dd35a33d-attr-2-type" class="er entityLabel">int</text><rect height="24" width="74.24130249023438" y="51" x="50.671875" class="er attributeBoxEven"></rect><text style="dominant-baseline: middle; font-size: 10.2px;" transform="translate(55.671875,63)" y="0" x="0" id="text-entity-trips-19ff57ce-4c80-56ac-b63b-1960dd35a33d-attr-2-name" class="er entityLabel">user_id</text><rect height="24" width="21.817001342773438" y="51" x="124.91317749023438" class="er attributeBoxEven"></rect><text style="dominant-baseline: middle; font-size: 10.2px;" transform="translate(129.91317749023438,63)" y="0" x="0" id="text-entity-trips-19ff57ce-4c80-56ac-b63b-1960dd35a33d-attr-2-key" class="er entityLabel">FK</text><rect height="24" width="104.09375" y="51" x="146.7301788330078" class="er attributeBoxEven"></rect><text style="dominant-baseline: middle; font-size: 10.2px;" transform="translate(151.7301788330078,63)" y="0" x="0" id="text-entity-trips-19ff57ce-4c80-56ac-b63b-1960dd35a33d-attr-2-comment" class="er entityLabel">Foreign Key to users</text><rect height="24" width="50.671875" y="75" x="0" class="er attributeBoxOdd"></rect><text style="dominant-baseline: middle; font-size: 10.2px;" transform="translate(5,87)" y="0" x="0" id="text-entity-trips-19ff57ce-4c80-56ac-b63b-1960dd35a33d-attr-3-type" class="er entityLabel">string</text><rect height="24" width="74.24130249023438" y="75" x="50.671875" class="er attributeBoxOdd"></rect><text style="dominant-baseline: middle; font-size: 10.2px;" transform="translate(55.671875,87)" y="0" x="0" id="text-entity-trips-19ff57ce-4c80-56ac-b63b-1960dd35a33d-attr-3-name" class="er entityLabel">scooter_hw_id</text><rect height="24" width="21.817001342773438" y="75" x="124.91317749023438" class="er attributeBoxOdd"></rect><text style="dominant-baseline: middle; font-size: 10.2px;" transform="translate(129.91317749023438,87)" y="0" x="0" id="text-entity-trips-19ff57ce-4c80-56ac-b63b-1960dd35a33d-attr-3-key" class="er entityLabel"></text><rect height="24" width="104.09375" y="75" x="146.7301788330078" class="er attributeBoxOdd"></rect><text style="dominant-baseline: middle; font-size: 10.2px;" transform="translate(151.7301788330078,87)" y="0" x="0" id="text-entity-trips-19ff57ce-4c80-56ac-b63b-1960dd35a33d-attr-3-comment" class="er entityLabel">Scooter Hardware ID</text><rect height="24" width="50.671875" y="99" x="0" class="er attributeBoxEven"></rect><text style="dominant-baseline: middle; font-size: 10.2px;" transform="translate(5,111)" y="0" x="0" id="text-entity-trips-19ff57ce-4c80-56ac-b63b-1960dd35a33d-attr-4-type" class="er entityLabel">datetime</text><rect height="24" width="74.24130249023438" y="99" x="50.671875" class="er attributeBoxEven"></rect><text style="dominant-baseline: middle; font-size: 10.2px;" transform="translate(55.671875,111)" y="0" x="0" id="text-entity-trips-19ff57ce-4c80-56ac-b63b-1960dd35a33d-attr-4-name" class="er entityLabel">started_at</text><rect height="24" width="21.817001342773438" y="99" x="124.91317749023438" class="er attributeBoxEven"></rect><text style="dominant-baseline: middle; font-size: 10.2px;" transform="translate(129.91317749023438,111)" y="0" x="0" id="text-entity-trips-19ff57ce-4c80-56ac-b63b-1960dd35a33d-attr-4-key" class="er entityLabel"></text><rect height="24" width="104.09375" y="99" x="146.7301788330078" class="er attributeBoxEven"></rect><text style="dominant-baseline: middle; font-size: 10.2px;" transform="translate(151.7301788330078,111)" y="0" x="0" id="text-entity-trips-19ff57ce-4c80-56ac-b63b-1960dd35a33d-attr-4-comment" class="er entityLabel">Start Time</text><rect height="24" width="50.671875" y="123" x="0" class="er attributeBoxOdd"></rect><text style="dominant-baseline: middle; font-size: 10.2px;" transform="translate(5,135)" y="0" x="0" id="text-entity-trips-19ff57ce-4c80-56ac-b63b-1960dd35a33d-attr-5-type" class="er entityLabel">datetime</text><rect height="24" width="74.24130249023438" y="123" x="50.671875" class="er attributeBoxOdd"></rect><text style="dominant-baseline: middle; font-size: 10.2px;" transform="translate(55.671875,135)" y="0" x="0" id="text-entity-trips-19ff57ce-4c80-56ac-b63b-1960dd35a33d-attr-5-name" class="er entityLabel">finished_at</text><rect height="24" width="21.817001342773438" y="123" x="124.91317749023438" class="er attributeBoxOdd"></rect><text style="dominant-baseline: middle; font-size: 10.2px;" transform="translate(129.91317749023438,135)" y="0" x="0" id="text-entity-trips-19ff57ce-4c80-56ac-b63b-1960dd35a33d-attr-5-key" class="er entityLabel"></text><rect height="24" width="104.09375" y="123" x="146.7301788330078" class="er attributeBoxOdd"></rect><text style="dominant-baseline: middle; font-size: 10.2px;" transform="translate(151.7301788330078,135)" y="0" x="0" id="text-entity-trips-19ff57ce-4c80-56ac-b63b-1960dd35a33d-attr-5-comment" class="er entityLabel">Finish Time</text><rect height="24" width="50.671875" y="147" x="0" class="er attributeBoxEven"></rect><text style="dominant-baseline: middle; font-size: 10.2px;" transform="translate(5,159)" y="0" x="0" id="text-entity-trips-19ff57ce-4c80-56ac-b63b-1960dd35a33d-attr-6-type" class="er entityLabel">float</text><rect height="24" width="74.24130249023438" y="147" x="50.671875" class="er attributeBoxEven"></rect><text style="dominant-baseline: middle; font-size: 10.2px;" transform="translate(55.671875,159)" y="0" x="0" id="text-entity-trips-19ff57ce-4c80-56ac-b63b-1960dd35a33d-attr-6-name" class="er entityLabel">start_lat</text><rect height="24" width="21.817001342773438" y="147" x="124.91317749023438" class="er attributeBoxEven"></rect><text style="dominant-baseline: middle; font-size: 10.2px;" transform="translate(129.91317749023438,159)" y="0" x="0" id="text-entity-trips-19ff57ce-4c80-56ac-b63b-1960dd35a33d-attr-6-key" class="er entityLabel"></text><rect height="24" width="104.09375" y="147" x="146.7301788330078" class="er attributeBoxEven"></rect><text style="dominant-baseline: middle; font-size: 10.2px;" transform="translate(151.7301788330078,159)" y="0" x="0" id="text-entity-trips-19ff57ce-4c80-56ac-b63b-1960dd35a33d-attr-6-comment" class="er entityLabel">Start Latitude</text><rect height="24" width="50.671875" y="171" x="0" class="er attributeBoxOdd"></rect><text style="dominant-baseline: middle; font-size: 10.2px;" transform="translate(5,183)" y="0" x="0" id="text-entity-trips-19ff57ce-4c80-56ac-b63b-1960dd35a33d-attr-7-type" class="er entityLabel">float</text><rect height="24" width="74.24130249023438" y="171" x="50.671875" class="er attributeBoxOdd"></rect><text style="dominant-baseline: middle; font-size: 10.2px;" transform="translate(55.671875,183)" y="0" x="0" id="text-entity-trips-19ff57ce-4c80-56ac-b63b-1960dd35a33d-attr-7-name" class="er entityLabel">start_lon</text><rect height="24" width="21.817001342773438" y="171" x="124.91317749023438" class="er attributeBoxOdd"></rect><text style="dominant-baseline: middle; font-size: 10.2px;" transform="translate(129.91317749023438,183)" y="0" x="0" id="text-entity-trips-19ff57ce-4c80-56ac-b63b-1960dd35a33d-attr-7-key" class="er entityLabel"></text><rect height="24" width="104.09375" y="171" x="146.7301788330078" class="er attributeBoxOdd"></rect><text style="dominant-baseline: middle; font-size: 10.2px;" transform="translate(151.7301788330078,183)" y="0" x="0" id="text-entity-trips-19ff57ce-4c80-56ac-b63b-1960dd35a33d-attr-7-comment" class="er entityLabel">Start Longitude</text><rect height="24" width="50.671875" y="195" x="0" class="er attributeBoxEven"></rect><text style="dominant-baseline: middle; font-size: 10.2px;" transform="translate(5,207)" y="0" x="0" id="text-entity-trips-19ff57ce-4c80-56ac-b63b-1960dd35a33d-attr-8-type" class="er entityLabel">float</text><rect height="24" width="74.24130249023438" y="195" x="50.671875" class="er attributeBoxEven"></rect><text style="dominant-baseline: middle; font-size: 10.2px;" transform="translate(55.671875,207)" y="0" x="0" id="text-entity-trips-19ff57ce-4c80-56ac-b63b-1960dd35a33d-attr-8-name" class="er entityLabel">finish_lat</text><rect height="24" width="21.817001342773438" y="195" x="124.91317749023438" class="er attributeBoxEven"></rect><text style="dominant-baseline: middle; font-size: 10.2px;" transform="translate(129.91317749023438,207)" y="0" x="0" id="text-entity-trips-19ff57ce-4c80-56ac-b63b-1960dd35a33d-attr-8-key" class="er entityLabel"></text><rect height="24" width="104.09375" y="195" x="146.7301788330078" class="er attributeBoxEven"></rect><text style="dominant-baseline: middle; font-size: 10.2px;" transform="translate(151.7301788330078,207)" y="0" x="0" id="text-entity-trips-19ff57ce-4c80-56ac-b63b-1960dd35a33d-attr-8-comment" class="er entityLabel">Finish Latitude</text><rect height="24" width="50.671875" y="219" x="0" class="er attributeBoxOdd"></rect><text style="dominant-baseline: middle; font-size: 10.2px;" transform="translate(5,231)" y="0" x="0" id="text-entity-trips-19ff57ce-4c80-56ac-b63b-1960dd35a33d-attr-9-type" class="er entityLabel">float</text><rect height="24" width="74.24130249023438" y="219" x="50.671875" class="er attributeBoxOdd"></rect><text style="dominant-baseline: middle; font-size: 10.2px;" transform="translate(55.671875,231)" y="0" x="0" id="text-entity-trips-19ff57ce-4c80-56ac-b63b-1960dd35a33d-attr-9-name" class="er entityLabel">finish_lon</text><rect height="24" width="21.817001342773438" y="219" x="124.91317749023438" class="er attributeBoxOdd"></rect><text style="dominant-baseline: middle; font-size: 10.2px;" transform="translate(129.91317749023438,231)" y="0" x="0" id="text-entity-trips-19ff57ce-4c80-56ac-b63b-1960dd35a33d-attr-9-key" class="er entityLabel"></text><rect height="24" width="104.09375" y="219" x="146.7301788330078" class="er attributeBoxOdd"></rect><text style="dominant-baseline: middle; font-size: 10.2px;" transform="translate(151.7301788330078,231)" y="0" x="0" id="text-entity-trips-19ff57ce-4c80-56ac-b63b-1960dd35a33d-attr-9-comment" class="er entityLabel">Finish Longitude</text><rect height="24" width="50.671875" y="243" x="0" class="er attributeBoxEven"></rect><text style="dominant-baseline: middle; font-size: 10.2px;" transform="translate(5,255)" y="0" x="0" id="text-entity-trips-19ff57ce-4c80-56ac-b63b-1960dd35a33d-attr-10-type" class="er entityLabel">float</text><rect height="24" width="74.24130249023438" y="243" x="50.671875" class="er attributeBoxEven"></rect><text style="dominant-baseline: middle; font-size: 10.2px;" transform="translate(55.671875,255)" y="0" x="0" id="text-entity-trips-19ff57ce-4c80-56ac-b63b-1960dd35a33d-attr-10-name" class="er entityLabel">distance</text><rect height="24" width="21.817001342773438" y="243" x="124.91317749023438" class="er attributeBoxEven"></rect><text style="dominant-baseline: middle; font-size: 10.2px;" transform="translate(129.91317749023438,255)" y="0" x="0" id="text-entity-trips-19ff57ce-4c80-56ac-b63b-1960dd35a33d-attr-10-key" class="er entityLabel"></text><rect height="24" width="104.09375" y="243" x="146.7301788330078" class="er attributeBoxEven"></rect><text style="dominant-baseline: middle; font-size: 10.2px;" transform="translate(151.7301788330078,255)" y="0" x="0" id="text-entity-trips-19ff57ce-4c80-56ac-b63b-1960dd35a33d-attr-10-comment" class="er entityLabel">Distance Travelled</text><rect height="24" width="50.671875" y="267" x="0" class="er attributeBoxOdd"></rect><text style="dominant-baseline: middle; font-size: 10.2px;" transform="translate(5,279)" y="0" x="0" id="text-entity-trips-19ff57ce-4c80-56ac-b63b-1960dd35a33d-attr-11-type" class="er entityLabel">int</text><rect height="24" width="74.24130249023438" y="267" x="50.671875" class="er attributeBoxOdd"></rect><text style="dominant-baseline: middle; font-size: 10.2px;" transform="translate(55.671875,279)" y="0" x="0" id="text-entity-trips-19ff57ce-4c80-56ac-b63b-1960dd35a33d-attr-11-name" class="er entityLabel">price</text><rect height="24" width="21.817001342773438" y="267" x="124.91317749023438" class="er attributeBoxOdd"></rect><text style="dominant-baseline: middle; font-size: 10.2px;" transform="translate(129.91317749023438,279)" y="0" x="0" id="text-entity-trips-19ff57ce-4c80-56ac-b63b-1960dd35a33d-attr-11-key" class="er entityLabel"></text><rect height="24" width="104.09375" y="267" x="146.7301788330078" class="er attributeBoxOdd"></rect><text style="dominant-baseline: middle; font-size: 10.2px;" transform="translate(151.7301788330078,279)" y="0" x="0" id="text-entity-trips-19ff57ce-4c80-56ac-b63b-1960dd35a33d-attr-11-comment" class="er entityLabel">Price</text></g><rect height="0" width="0" y="241" x="145.41200256347656" class="er relationshipLabelBox"></rect><text style="text-anchor: middle; dominant-baseline: middle; font-size: 12px;" y="241" x="145.41200256347656" id="rel1" class="er relationshipLabel"></text></svg>