<svg aria-roledescription="er" role="graphics-document document" viewBox="0 0 1092.5257568359375 290" style="width: 100%;" xmlns="http://www.w3.org/2000/svg" width="100%" id="diagram-gen"><style>#diagram-gen{font-family:"trebuchet ms",verdana,arial,sans-serif;font-size:16px;fill:#333;}#diagram-gen .error-icon{fill:#552222;}#diagram-gen .error-text{fill:#552222;stroke:#552222;}#diagram-gen .edge-thickness-normal{stroke-width:2px;}#diagram-gen .edge-thickness-thick{stroke-width:3.5px;}#diagram-gen .edge-pattern-solid{stroke-dasharray:0;}#diagram-gen .edge-pattern-dashed{stroke-dasharray:3;}#diagram-gen .edge-pattern-dotted{stroke-dasharray:2;}#diagram-gen .marker{fill:#333333;stroke:#333333;}#diagram-gen .marker.cross{stroke:#333333;}#diagram-gen svg{font-family:"trebuchet ms",verdana,arial,sans-serif;font-size:16px;}#diagram-gen .entityBox{fill:#ECECFF;stroke:#9370DB;}#diagram-gen .attributeBoxOdd{fill:#ffffff;stroke:#9370DB;}#diagram-gen .attributeBoxEven{fill:#f2f2f2;stroke:#9370DB;}#diagram-gen .relationshipLabelBox{fill:hsl(80, 100%, 96.2745098039%);opacity:0.7;background-color:hsl(80, 100%, 96.2745098039%);}#diagram-gen .relationshipLabelBox rect{opacity:0.5;}#diagram-gen .relationshipLine{stroke:#333333;}#diagram-gen .entityTitleText{text-anchor:middle;font-size:18px;fill:#333;}#diagram-gen #MD_PARENT_START{fill:#f5f5f5!important;stroke:#333333!important;stroke-width:1;}#diagram-gen #MD_PARENT_END{fill:#f5f5f5!important;stroke:#333333!important;stroke-width:1;}#diagram-gen :root{--mermaid-font-family:"trebuchet ms",verdana,arial,sans-serif;}</style><g></g><defs><marker orient="auto" markerHeight="240" markerWidth="190" refY="7" refX="0" id="MD_PARENT_START"><path d="M 18,7 L9,13 L1,7 L9,1 Z"></path></marker></defs><defs><marker orient="auto" markerHeight="28" markerWidth="20" refY="7" refX="19" id="MD_PARENT_END"><path d="M 18,7 L9,13 L1,7 L9,1 Z"></path></marker></defs><defs><marker orient="auto" markerHeight="18" markerWidth="18" refY="9" refX="0" id="ONLY_ONE_START"><path d="M9,0 L9,18 M15,0 L15,18" fill="none" stroke="gray"></path></marker></defs><defs><marker orient="auto" markerHeight="18" markerWidth="18" refY="9" refX="18" id="ONLY_ONE_END"><path d="M3,0 L3,18 M9,0 L9,18" fill="none" stroke="gray"></path></marker></defs><defs><marker orient="auto" markerHeight="18" markerWidth="30" refY="9" refX="0" id="ZERO_OR_ONE_START"><circle r="6" cy="9" cx="21" fill="white" stroke="gray"></circle><path d="M9,0 L9,18" fill="none" stroke="gray"></path></marker></defs><defs><marker orient="auto" markerHeight="18" markerWidth="30" refY="9" refX="30" id="ZERO_OR_ONE_END"><circle r="6" cy="9" cx="9" fill="white" stroke="gray"></circle><path d="M21,0 L21,18" fill="none" stroke="gray"></path></marker></defs><defs><marker orient="auto" markerHeight="36" markerWidth="45" refY="18" refX="18" id="ONE_OR_MORE_START"><path d="M0,18 Q 18,0 36,18 Q 18,36 0,18 M42,9 L42,27" fill="none" stroke="gray"></path></marker></defs><defs><marker orient="auto" markerHeight="36" markerWidth="45" refY="18" refX="27" id="ONE_OR_MORE_END"><path d="M3,9 L3,27 M9,18 Q27,0 45,18 Q27,36 9,18" fill="none" stroke="gray"></path></marker></defs><defs><marker orient="auto" markerHeight="36" markerWidth="57" refY="18" refX="18" id="ZERO_OR_MORE_START"><circle r="6" cy="18" cx="48" fill="white" stroke="gray"></circle><path d="M0,18 Q18,0 36,18 Q18,36 0,18" fill="none" stroke="gray"></path></marker></defs><defs><marker orient="auto" markerHeight="36" markerWidth="57" refY="18" refX="39" id="ZERO_OR_MORE_END"><circle r="6" cy="18" cx="9" fill="white" stroke="gray"></circle><path d="M21,18 Q39,0 57,18 Q39,36 21,18" fill="none" stroke="gray"></path></marker></defs><path style="stroke: gray; fill: none;" marker-start="url(#ONLY_ONE_START)" marker-end="url(#ZERO_OR_MORE_END)" d="M127.143,95L117.619,103.333C108.095,111.667,89.048,128.333,79.524,145C70,161.667,70,178.333,70,186.667L70,195" class="er relationshipLine"></path><path style="stroke: gray; fill: none;" marker-start="url(#ONLY_ONE_START)" marker-end="url(#ZERO_OR_MORE_END)" d="M212.857,95L222.381,103.333C231.905,111.667,250.952,128.333,260.476,145C270,161.667,270,178.333,270,186.667L270,195" class="er relationshipLine"></path><g transform="translate(120,20 )" id="entity-users-33ae1e26-be31-5c1d-bf65-e859e9d0308e"><rect height="75" width="100" y="0" x="0" class="er entityBox"></rect><text style="dominant-baseline: middle; text-anchor: middle; font-size: 12px;" transform="translate(50,37.5)" y="0" x="0" id="text-entity-users-33ae1e26-be31-5c1d-bf65-e859e9d0308e" class="er entityLabel">users</text></g><g transform="translate(20,195 )" id="entity-trips-19ff57ce-4c80-56ac-b63b-1960dd35a33d"><rect height="75" width="100" y="0" x="0" class="er entityBox"></rect><text style="dominant-baseline: middle; text-anchor: middle; font-size: 12px;" transform="translate(50,37.5)" y="0" x="0" id="text-entity-trips-19ff57ce-4c80-56ac-b63b-1960dd35a33d" class="er entityLabel">trips</text></g><g transform="translate(220,195 )" id="entity-tripsprep-5c44ce12-a38b-5903-9b88-b413a980fc19"><rect height="75" width="100" y="0" x="0" class="er entityBox"></rect><text style="dominant-baseline: middle; text-anchor: middle; font-size: 12px;" transform="translate(50,37.5)" y="0" x="0" id="text-entity-tripsprep-5c44ce12-a38b-5903-9b88-b413a980fc19" class="er entityLabel">trips_prep</text></g><g transform="translate(320,20 )" id="entity-tripsstat-ee1c5063-120c-555b-93cb-d6c52fbf69b7"><rect height="75" width="100" y="0" x="0" class="er entityBox"></rect><text style="dominant-baseline: middle; text-anchor: middle; font-size: 12px;" transform="translate(50,37.5)" y="0" x="0" id="text-entity-tripsstat-ee1c5063-120c-555b-93cb-d6c52fbf69b7" class="er entityLabel">trips_stat</text></g><g transform="translate(520,20 )" id="entity-tripsstatdaily-311303a7-3e59-5c68-bdff-d3330cf230b2"><rect height="75" width="109.40452575683594" y="0" x="0" class="er entityBox"></rect><text style="dominant-baseline: middle; text-anchor: middle; font-size: 12px;" transform="translate(54.70226287841797,37.5)" y="0" x="0" id="text-entity-tripsstatdaily-311303a7-3e59-5c68-bdff-d3330cf230b2" class="er entityLabel">trips_stat_daily</text></g><g transform="translate(729.4045257568359,20 )" id="entity-tripsagedaily-b2b7f5e0-06d9-5bba-aa85-6f2941eb8782"><rect height="75" width="109.03251647949219" y="0" x="0" class="er entityBox"></rect><text style="dominant-baseline: middle; text-anchor: middle; font-size: 12px;" transform="translate(54.516258239746094,37.5)" y="0" x="0" id="text-entity-tripsagedaily-b2b7f5e0-06d9-5bba-aa85-6f2941eb8782" class="er entityLabel">trips_age_daily</text></g><g transform="translate(938.4370422363281,20 )" id="entity-tripsagestatdaily-8c4d7d84-7e79-59bf-aead-be0f877db9a3"><rect height="75" width="134.0886993408203" y="0" x="0" class="er entityBox"></rect><text style="dominant-baseline: middle; text-anchor: middle; font-size: 12px;" transform="translate(67.04434967041016,37.5)" y="0" x="0" id="text-entity-tripsagestatdaily-8c4d7d84-7e79-59bf-aead-be0f877db9a3" class="er entityLabel">trips_age_stat_daily</text></g><rect height="0" width="0" y="137.5645294189453" x="84.3619384765625" class="er relationshipLabelBox"></rect><text style="text-anchor: middle; dominant-baseline: middle; font-size: 12px;" y="137.5645294189453" x="84.3619384765625" id="rel1" class="er relationshipLabel"></text><rect height="0" width="0" y="137.56455993652344" x="255.63804626464844" class="er relationshipLabelBox"></rect><text style="text-anchor: middle; dominant-baseline: middle; font-size: 12px;" y="137.56455993652344" x="255.63804626464844" id="rel2" class="er relationshipLabel"></text></svg>